<!-- <svg width="368" height="309" fill="none" xmlns="http://www.w3.org/2000/svg"> -->
<svg viewBox="0 0 368 309" fill="none" xmlns="http://www.w3.org/2000/svg">    
    <g clip-path="url(#a)">
        <path d="M316.717 227.584C241.8 288.051 152.029 180.333 119.3 202.826c0 0-67.096 48.089-108.465-27.902C-30.529 98.938 59.592-3.759 178.44.637 321.069 5.913 415.143 148.14 316.717 227.584Z" fill="#EBEDFA" fill-opacity=".5"/>
        <path d="M216.377 295.855c.307-7.961-20.898-15.25-47.362-16.281-26.465-1.031-48.168 4.586-48.475 12.546-.307 7.96 20.898 15.249 47.363 16.281 26.465 1.031 48.167-4.586 48.474-12.546Z" fill="#D3D7F2" style="mix-blend-mode:multiply" opacity=".66"/>
        <path clip-rule="evenodd" d="M294.831 91.221a3.303 3.303 0 0 1-3.295 3.313 3.306 3.306 0 0 1-3.296-3.313 3.306 3.306 0 0 1 3.296-3.312 3.303 3.303 0 0 1 3.295 3.312ZM153.625 41.274a3.303 3.303 0 0 1-3.295 3.313 3.306 3.306 0 0 1-3.296-3.313 3.306 3.306 0 0 1 3.296-3.312 3.303 3.303 0 0 1 3.295 3.312ZM50.706 112.638a3.303 3.303 0 0 1-3.295 3.312 3.303 3.303 0 0 1-3.296-3.312 3.305 3.305 0 0 1 3.296-3.312 3.303 3.303 0 0 1 3.295 3.312Z" stroke="#2D4973" stroke-width="1.83" stroke-miterlimit="10" stroke-linecap="round"/>
        <path d="m217.187 293.741 77.784-16.028c11.934-2.461 23.189-7.845 32.754-15.673l36.045-29.498c6.574-5.38 4.364-15.784-3.707-17.472l-113.002-23.571-29.878 102.234.004.008Z" fill="#D3D7F2" style="mix-blend-mode:multiply" opacity=".66"/>
        <path d="m217.179 293.741 68.165-58.511.601-85.696-70.741 44.368 1.975 99.839Z" fill="#92A5D1"/>
        <path d="m75.446 170.566 1.206 94.24 140.535 28.935-1.917-96.424-139.824-26.751Z" fill="#B6C8F0"/>
        <path d="m227.846 199.228-12.453-1.398-149.075-29.162 71.744-68.147 89.784 98.707Z" fill="#5870C4"/>
        <path d="m137.655 100.757 64.583-41.767 92.959 90.763-67.351 49.475-90.191-98.471Z" fill="#5870C4"/>
        <path d="m137.454 111.683-62.008 58.883 37.271 29.708 102.677-2.444-77.94-86.147Z" fill="#B6C8F0"/>
        <path d="M144.674 189.46c5.145-2.404 7.069-9.209 4.298-15.198-2.771-5.989-9.187-8.895-14.331-6.49-5.144 2.405-7.068 9.209-4.297 15.198 2.77 5.989 9.186 8.895 14.33 6.49Z" fill="#92A5D1"/>
        <path d="m236.592 249.894 14.982-12.203.165-31.78-14.983 12.203-.164 31.78ZM261.559 228.825l14.472-11.79.16-30.701-14.472 11.786-.16 30.705Z" fill="#627BB5"/>
        <path d="m104.502 270.542-27.85-5.736s-1.054-82.521-1.054-82.293M139.572 190.217s9.375 1.36 10.663-10.206M137.453 111.683l-60.641 57.588M215.476 205.857l.576 54.839" stroke="#2D4973" stroke-width="2.01" stroke-miterlimit="10" stroke-linecap="round"/>
        <path d="m157.627 281.988-34.938-7.691v-56.609l34.947 6.91-.009 57.39Z" fill="#92A5D1"/>
        <path d="m242.244 121.947-37.147 23.815c-3.982 2.556-9.577 2.506-12.432-.103-2.851-2.61-1.925-6.84 2.057-9.392l37.147-23.815c3.982-2.556 9.577-2.506 12.432.103 2.851 2.61 1.925 6.84-2.057 9.392Z" fill="#41528F"/>
        <path d="m222.65 82.462-17.702 48.917 6.854 2.262 15.052-49.748-4.204-1.43Z" fill="#EB9760"/>
        <path d="M230.455 112.847c4.771-13.55 1.135-27.206-8.122-30.5-9.257-3.292-20.629 5.023-25.4 18.574-4.771 13.551-1.134 27.206 8.122 30.5 9.257 3.293 20.629-5.022 25.4-18.574Z" fill="#FFB87D"/>
        <path d="M234.992 114.419c4.771-13.551 1.135-27.206-8.122-30.5-9.257-3.293-20.629 5.022-25.4 18.573-4.771 13.551-1.134 27.207 8.123 30.5 9.256 3.293 20.628-5.022 25.399-18.573Z" fill="#fff"/>
        <path d="M235.926 114.688c4.771-13.551 1.135-27.207-8.122-30.5-9.257-3.293-20.629 5.022-25.4 18.573-4.771 13.552-1.135 27.207 8.122 30.5 9.257 3.293 20.629-5.022 25.4-18.573Z" fill="#EB9760"/>
        <path d="M232.254 112.16c3.204-9.101.763-18.271-5.452-20.483-6.216-2.21-13.852 3.374-17.056 12.475-3.204 9.101-.763 18.271 5.452 20.482 6.216 2.212 13.852-3.373 17.056-12.474Z" fill="#fff"/>
        <path d="M231.849 99.731c1.76 8.255-2.3 18.531-9.067 22.956-2.699 1.761-5.418 2.328-7.829 1.852 2.724 1.071 5.994.679 9.236-1.439 6.767-4.425 10.827-14.701 9.067-22.955-1.058-4.962-3.982-8.064-7.615-8.788 2.97 1.167 5.29 4.07 6.212 8.374h-.004Z" fill="#D48856"/>
        <path d="M223.181 101.448c-.411-.244-.81-.389-1.193-.438-.383-.05-.864.082-1.444.393a3.79 3.79 0 0 0-1.526 1.492 3.877 3.877 0 0 0-.51 2.08c.02.608.181 1.026.485 1.258.305.231.679.376 1.127.434.449.062.934.087 1.461.087.526 0 1.016.082 1.464.24.453.161.835.454 1.144.876.308.426.481 1.096.514 2.006a6.973 6.973 0 0 1-.777 3.461 7.437 7.437 0 0 1-2.358 2.713l.091 2.556-1.271.686-.087-2.506c-.683.281-1.345.414-1.995.393-.65-.021-1.209-.153-1.678-.397l.757-1.878c.469.228.979.36 1.538.393.556.037 1.16-.12 1.81-.471.79-.426 1.374-.98 1.745-1.663.37-.682.543-1.418.518-2.212-.025-.674-.189-1.158-.494-1.447a2.256 2.256 0 0 0-1.131-.575 7.976 7.976 0 0 0-1.465-.153 5.31 5.31 0 0 1-1.464-.215 2.28 2.28 0 0 1-1.14-.765c-.308-.377-.477-.976-.506-1.803a6.581 6.581 0 0 1 .741-3.271 7.317 7.317 0 0 1 2.188-2.61l-.09-2.53 1.271-.687.086 2.506c.683-.281 1.263-.372 1.753-.273.485.1.93.29 1.329.57l-.889 1.746-.004.004Z" fill="#EB9760"/>
        <path d="M167.842 240.507a22.788 22.788 0 0 0-1.168-7.204c-2.362-7.146-7.253-13.171-16.698-13.365 0 0-2.349-.042-3.666.454-5.677 2.151-8.77 7.597-8.832 14.582a22.74 22.74 0 0 0 1.168 7.199c1.699 5.141 4.974 9.21 8.82 11.546l-.024.893 4.319.918c2.234.55 4.53.526 6.735-.181 5.779-1.853 9.28-7.853 9.342-14.838l.004-.004Zm-11.041 8.99c-5.208 1.671-11.186-2.299-13.354-8.862-2.168-6.563.296-13.233 5.5-14.904 5.208-1.67 11.186 2.299 13.354 8.862 2.168 6.563-.296 13.233-5.5 14.904Z" fill="#D98541"/>
        <path d="M134.167 237.062a22.723 22.723 0 0 0 1.168 7.2c3.225 9.755 12.111 15.652 19.849 13.171 5.78-1.853 9.281-7.853 9.342-14.838a22.764 22.764 0 0 0-1.168-7.204c-3.225-9.755-12.111-15.652-19.849-13.171-5.78 1.853-9.285 7.857-9.342 14.838v.004Zm24.822-.38c2.168 6.562-.296 13.233-5.5 14.903-5.208 1.671-11.185-2.299-13.353-8.862-2.168-6.562.296-13.233 5.5-14.903 5.208-1.671 11.185 2.299 13.353 8.862Z" fill="#FFB87D"/>
        <path d="M155.361 257.172c5.78-1.852 9.281-7.853 9.342-14.837a22.756 22.756 0 0 0-1.168-7.204c-1.872-5.661-5.648-10.024-10.005-12.199" stroke="#9C5E2C" stroke-width="2.17" stroke-linecap="round" stroke-linejoin="round"/>
        <path d="M204.146 288.274a22.764 22.764 0 0 0-1.168-7.204c-2.361-7.146-7.253-13.171-16.698-13.365 0 0-2.349-.041-3.665.455-5.677 2.15-8.771 7.596-8.833 14.581a22.725 22.725 0 0 0 1.169 7.2c1.699 5.14 4.973 9.209 8.82 11.546l-.025.893 4.315.918c2.234.55 4.53.525 6.735-.182 5.78-1.853 9.28-7.853 9.342-14.838l.008-.004Zm-11.041 8.99c-5.208 1.671-11.186-2.299-13.354-8.862-2.167-6.562.297-13.233 5.501-14.903 5.208-1.671 11.185 2.299 13.353 8.862 2.168 6.562-.296 13.233-5.5 14.903Z" fill="#D98541"/>
        <path d="M170.475 284.829a22.742 22.742 0 0 0 1.168 7.2c3.226 9.755 12.111 15.652 19.849 13.171 5.78-1.853 9.281-7.853 9.343-14.838a22.756 22.756 0 0 0-1.169-7.203c-3.225-9.756-12.111-15.653-19.849-13.171-5.779 1.852-9.284 7.857-9.342 14.837v.004Zm24.823-.38c2.168 6.563-.297 13.233-5.501 14.904-5.208 1.67-11.185-2.3-13.353-8.862-2.168-6.563.296-13.233 5.5-14.904 5.208-1.671 11.186 2.299 13.354 8.862Z" fill="#FFB87D"/>
        <path d="M193.175 236.851c-.523-.616-1.156-1.017-1.806-1.199v-.017l-.268-.045a4.606 4.606 0 0 0-2.962.136l-1.62.637.148 1.526.58.099-42.566 50.29c-.707.836-.958 2.031-.781 3.201l-1.284-.223a6.228 6.228 0 0 0 4.102 3.726l.436.124c.921.12 1.839-.19 2.493-.968l43.799-51.745c1.218-1.439 1.095-3.933-.271-5.546v.004Z" fill="#D98541"/>
        <path d="m189.732 242.57-42.15 50.464c-1.173 1.402-3.242 1.187-4.6-.48-1.357-1.666-1.509-4.176-.337-5.578l42.15-50.464c1.173-1.402 3.242-1.187 4.599.48 1.358 1.666 1.51 4.177.338 5.578Z" fill="#FFB87D"/>
        <path d="M191.319 304.94c5.78-1.853 9.281-7.853 9.343-14.838a22.793 22.793 0 0 0-1.168-7.204c-1.872-5.661-5.649-10.024-10.005-12.199M147.582 293.034l41.479-49.215" stroke="#9C5E2C" stroke-width="2.17" stroke-linecap="round" stroke-linejoin="round"/>
        <path d="m141.855 104.69 84.901 93.343" stroke="#2D4973" stroke-width="2.01" stroke-miterlimit="10" stroke-linecap="round"/>
        <path d="M65.129 162.386s5.035 7.837 12.374 23.009l-6.323 7.721-12.539-15.834 6.488-14.896Z" fill="#7588FF"/>
        <path d="M26.34 280.392c7.623-4.226 20.94-4.871 29.739-1.443 1.501.587 2.768 1.253 3.809 1.977 5.426-1.832 12.884-1.841 18.096.19 6.184 2.411 6.854 6.769 1.498 9.739-5.146 2.853-13.983 3.378-20.154 1.273a18.96 18.96 0 0 1-1.123.683c-7.622 4.226-20.939 4.871-29.742 1.443-8.8-3.428-9.754-9.636-2.131-13.862h.008Z" fill="#D3D7F2" style="mix-blend-mode:multiply" opacity=".66"/>
        <path d="m71.172 286.206-5.373-5.549c-1.036-1.071-2.464-1.667-3.945-1.605-.53.021-1.07.087-1.567.203-.666.153-1.012.6-1.04 1.245l-.137 1.203c-.16 2.018-.403 2.692.914 3.271l7.812 3.441c1.612 1.087 6.076.231 3.336-2.209Z" fill="#4A2A1A"/>
        <path d="M60.065 279.586c.185 1.336 1.324 2.415 2.62 2.258.642-.079 1.099-.468 1.234-1.7.297-13.845 2.02-25.399 2.304-38.343.321-14.531-.214-10.243.239-32.516l-12.893-2.638c2.21 16.041 2.81 36.283 2.81 36.283-3.945 14.916 1.283 19.304 3.682 36.656h.004Z" fill="#CF7242"/>
        <path d="m50.907 202.205 4.698 33.435c.412 3.651.313 6.562-.456 10.202-1.14 5.384-.86 16.169 3.196 31.763 2.02 1.642 4.18 1.576 6.459.058 0 0 3.007-34.849 3.184-41.56.177-6.716-.284-42.859-.284-42.859l-16.796 8.97v-.009Z" fill="#A9BDF2"/>
        <path d="m41.581 283.572-.078 4.305c-.037.451-.498 2.829-.7 3.238-.587 1.183-1.558 1.65-2.496 1.704-1.247.07-3.76-2.022-2.876-4.586.77-2.237 2.308-5.798 2.308-5.798 1.76.773 2.575 1.125 3.847 1.137h-.005Z" fill="#4A2A1A"/>
        <path d="M37.805 283.659c-.23 1.687 2.501 2.428 3.62.72 1.23-13.502 3.55-25.739 4.71-38.364 1.3-14.172 2.576-13.328 4.534-35.055l-14.222.769c1.12 15.863.354 35.696.354 35.696-5.138 14.788.054 17.369 1 36.238l.004-.004Z" fill="#CF7242"/>
        <path d="M34.954 198.504s1.888 28.588 1.123 34.878c-.596 4.892-2.192 12.918-2.875 16.252a17.389 17.389 0 0 0-.35 3.295c-.045 4.876.617 18.27 2.489 26.467 1.55 2.237 4.904 1.745 7.417.409l5.274-32.822c.082-.385 4.62-28.336 4.62-28.336l7.684-1.641-5.076-19.155s-21.264 2.464-20.31.653h.004Z" fill="#A9BDF2"/>
        <path d="M57.115 157.614c-1.711.071-3.29-.062-3.772-.351-2.69-1.617-5.706-.236-6.023 0l-8.495 3.262c-10.753 3.549-8.63 10.967-8.643 15.744 0 0 4.743 5.855 5.15 10.33.354 3.87 3.012 12.464 2.44 13.758-.428.968-.185 6.757 4.591 7.977 4.22 1.075 11.107 4.541 14.67 4.251 18.726-1.534 13.119-11.095 12.477-17.492-.403-4.024-1.847-15.888-1.987-19.093-.14-3.205.897-11.153-4.36-15.946-.753-.558-3.098-2.456-6.052-2.436l.004-.004Z" fill="#7588FF"/>
        <path d="m49.451 160.864.379-.364c1.065.257 1.986.145 2.126-.781l.774-5.236c.136-.926-.626-1.898-1.691-2.154l-.317-.075c-1.065-.256-3.974-.181-4.114.745l-.333 5.533c-.136.926 2.106 2.076 3.176 2.332Z" fill="#CF7242"/>
        <path d="M52.306 157.287s-2.263-.144-3.748-2.448c0 0 1.498 3.4 3.563 3.863l.185-1.415Z" fill="#9E5732"/>
        <path d="M47.423 146.436c.798-1.414 2.057-1.674 3.242-.885 1.14-.508 2.538.199 3.6 2.014 1.476 2.535 2.241 6.576 1.077 8.635-.51.897-1.752 1.439-2.547 1.468-.744.025-2.69-.558-3.414-.823-2.583-.943-1.93-.426-2.913-2.113-1.476-2.535-.213-6.236.95-8.296h.005Z" fill="#CF7242"/>
        <path d="M47.814 147.569c-.913 2.469-.436 6.675-.568 7.427 0 0-3.998-2.688-3.817-4.884.604-7.319 4.977-3.477 4.977-3.477l-.592.934Z" fill="#663A23"/>
        <path d="M45.498 144.736c.168-.517 6.8-3.693 9.132 1.7.366.848.03 1.522-.325 1.236-2.744-2.229-4.126-.078-6.783.956-1.74-.29-2.596 1.939-2.465.211l-.97.301c.016-.215.53-1.381.584-1.637.44-2.01.827-2.763.827-2.763v-.004Z" fill="#4A2A1A"/>
        <path d="M53.528 155.724c.592-.136.967-.86.835-1.617l-2.147.493c.131.756.72 1.261 1.312 1.124Z" fill="#fff"/>
        <path d="M45.16 153.524a1.536 1.536 0 0 0 1.387 1.609 1.43 1.43 0 0 0 1.559-1.348 1.535 1.535 0 0 0-1.386-1.609 1.43 1.43 0 0 0-1.56 1.348Z" fill="#CF7242"/>
        <path d="M52.203 157.614c.584.124 1.128.033 1.642-.195 0 0 .843 3.4-.354 4.475l-2.328-1.402s1.156-1.332 1.04-2.878ZM51.06 160.434l-1.42 2.366s-5.487-1.452-5.792-4.144l2.34-1.15s2.782 3.205 4.872 2.924v.004Z" fill="#fff"/>
        <path d="M34.452 204.079c.202-2.208-.242-13.481-.596-17.348-.23-2.535-.86-9.916-1.362-13.655 2 3.466 3.373 4.748 3.604 5.612 1.818 6.811 2.337 10.557 5.804 14.358 6.657 7.286 8.557 12.087 15.13 19.535-14.41.711-17.108.074-19.91-1.373-3.48-1.799-2.777-5.996-2.674-7.129h.004Z" fill="#6778E0"/>
        <path d="m67.042 172.41.46 13.213" stroke="#4355C2" stroke-width="1.92" stroke-linecap="round" stroke-linejoin="round"/>
        <path d="M36.822 207.681c-1.103.02-2.02-.712-2.037-1.626l.762-3.407c-.017-.914-.042-1.584 1.065-1.601 1.102-.02 1.744.505 1.752 2.159l-.012 2.585c0 .335-.045.674-.156.992-.202.592-.506.889-1.374.902v-.004ZM83.591 196.643c-.123-1.104.515-2.088 1.42-2.191l3.447.438c.905-.103 1.563-.19 1.687.918.123 1.104-.334 1.795-1.97 1.956l-2.56.232a3.11 3.11 0 0 1-.995-.062c-.605-.145-.926-.422-1.024-1.291h-.005Z" fill="#CF7242"/>
        <path d="M32.708 164.181s-12.448 11.376-15.312 21.685c-2.863 10.31 17.813 18.117 17.813 18.117l2.954-2.369c.444-.356.42-1.063-.045-1.423-2.905-2.229-11.531-9.064-10.47-10.88 1.765-3.019 14.016-16.384 14.016-16.384l-8.952-8.746h-.004Z" fill="#7588FF"/>
        <path d="m36.003 179.986.597-6.699" stroke="#4355C2" stroke-width="1.92" stroke-linecap="round" stroke-linejoin="round"/>
        <path d="m53.57 161.832-.65 2.249a.956.956 0 0 1-1.618.393l-1.571-1.679 1.35-2.44 2.488 1.477Z" fill="#4355C2"/>
        <path d="m57.317 173.771-4.748-10.252-1.645.066-.967 12.046 5.159 4.946 2.2-6.806Z" fill="#4355C2"/>
        <path d="M47.3 147.788s.933-.355.238.889c-1.547 2.754-4.11 2.002-4.11 2.002s-1.098-5.715 4.09-6.737c3.957-.781-.218 3.85-.218 3.85v-.004Z" fill="#4A2A1A"/>
        <path d="m59.908 191.11-.04-.562.867.5.152-.31 20.343-4.992c.247-.062.695.075 1.004.294l9.486 6.885-.008-.124 1.736 1.018.05.599h-.013c-.016.05-.066.091-.148.112l-21.17 5.194c-.246.062-.695-.075-1.003-.294l-10.988-7.973c-.169-.12-.26-.244-.268-.343v-.004Z" fill="#24386B"/>
        <path d="m72.13 199.129 21.17-5.194c.247-.062.194-.29-.11-.513L82.2 185.449c-.304-.223-.757-.356-1.004-.294l-21.17 5.194c-.246.062-.193.29.112.513l10.988 7.973c.304.223.757.356 1.004.294Z" fill="#91AAEB"/>
        <path d="M74.656 183.956c.12-.434.605-.877 1.086-.988l22.359-5.236c.197-.045.366-.029.485.037a.388.388 0 0 1 .107.091l.679.741-.65-.178-2.748 10.057c-.12.434-.605.877-1.086.988l-21.14 4.95-.7.451-1.473 4.268c-.42-.017-.843-.592-.843-.592l3.924-14.589Z" fill="#91AAEB"/>
        <path d="m98.755 178.498-22.358 5.235c-.482.112-.967.554-1.087.988l-2.776 10.165v.021l-1.111 4.069c-.12.434.177.694.658.583l22.359-5.236c.48-.111.966-.554 1.086-.988l2.776-10.165v-.02l1.111-4.069c.12-.435-.177-.695-.658-.583Z" fill="#24386B"/>
        <path d="M84.768 190.084c-.016 1.055.765 1.679 1.753 1.398.987-.281 1.801-1.369 1.822-2.423.016-1.055-.765-1.679-1.752-1.398-.988.285-1.802 1.369-1.823 2.423Z" fill="#fff"/>
        <path d="m53.861 217.833 4.97-.505" stroke="#828DC9" stroke-width="1.92" stroke-linecap="round" stroke-linejoin="round"/>
        <path fill-rule="evenodd" clip-rule="evenodd" d="M293.161 153.714s.205-.897 2.155.071c1.95.967 3.205 4.495 4.184 5.103.975.607 2.238 3.175 1.526 4.908-.687 1.671.531 1.795 1.033 3.164.419 1.137.662 4.019-1.609 5.016-2.27.997-7.841-.323-7.841-.323s-1.188-5.264-1.23-5.355c-.037-.087 1.782-12.584 1.782-12.584Z" fill="#4D2C1C"/>
        <path fill-rule="evenodd" clip-rule="evenodd" d="M293.831 155.075s.152-3.234-2.575-3.184c-1.033.02-.572-.985-2.09-.612-1.514.372-2.373 1.707-3.102 1.914-.728.207-2.785.587-2.497 2.353.288 1.766-1.423 1.704-1.806 2.899-.382 1.195 1.012 3.561-.444 3.85-1.456.29-.642 1.294-1.176 2.543-.539 1.249-.724 2.754 1.143 3.929 1.868 1.174 7.117 0 7.117 0l4.974-9.726.456-3.97v.004Z" fill="#4D2C1C"/>
        <path d="M317.041 291.855c-6.66-3.837-18.183-4.317-25.731-1.067-1.288.555-2.374 1.183-3.263 1.861-4.722-1.641-11.169-1.588-15.64.339-5.307 2.283-5.813 6.323-1.132 9.02 4.501 2.592 12.144 2.998 17.443.996.308.211.633.418.979.621 6.66 3.837 18.183 4.317 25.732 1.066 7.549-3.25 8.269-8.998 1.608-12.836h.004Z" fill="#D3D7F2" style="mix-blend-mode:multiply" opacity=".66"/>
        <path d="m270.679 295.089 5.595-6.488c.859-.447 2.46-.612 3.755-.376.585.107.889.496.922 1.083l.136 1.092c.168 1.828.391 2.431-.745 3.023l-6.734 3.515c-1.387 1.071-5.278.513-2.933-1.845l.004-.004Z" fill="#4D300F"/>
        <path d="M276.492 289.267s-3.197 3.866-2.79 4.143c1.687 1.15 5.682-2.245 5.682-2.245s-2.156-2.093-2.892-1.898Z" fill="#874B2B"/>
        <path d="M280.647 290.247c-1.152 2.113-4.312.711-4.464-1.53.214-12.543-2.316-22.43-2.123-34.154.214-13.163 1.177-13.374 1.535-33.554l12.144 2.117c-2.452 14.478-3.657 32.793-3.657 32.793 3.023 14.114-.848 17.067-3.435 34.324v.004Z" fill="#874B2B"/>
        <path d="m307.473 298.377.057-7.452c.317-.782 1.28-1.795 2.271-2.378.444-.26.864-.178 1.214.19l.699.645c1.135 1.109 1.621 1.382 1.201 2.416l-2.476 6.132c-.317 1.493-3.197 3.325-2.971.443l.005.004Z" fill="#4D300F"/>
        <path d="M308.049 291.239s.057 4.363.481 4.318c1.761-.195 2.55-4.243 2.55-4.243s-2.653-.616-3.027-.075h-.004Z" fill="#874B2B"/>
        <path d="M311.076 291.314c-.551 2.344-2.505 1.728-3.246-.393-3.11-12.146-8.157-21.004-11.07-32.359-3.27-12.75-2.398-13.209-7.38-32.756l12.267-1.2c1.461 14.615 5.134 32.591 5.134 32.591 6.644 12.799 2.226 16.79 4.291 34.117h.004Z" fill="#874B2B"/>
        <path d="m274.237 206.882-2.768 49.844s23.403 8.349 40.874-.571l-5.792-50.302-32.31 1.034-.004-.005Z" fill="#C5CBF2"/>
        <path d="M284.016 167.762a6.75 6.75 0 0 1 1.995-.124c3.085.265 7.405-.786 7.717-.558l5.69 3.043c10.955 4.214 8.626 10.909 5.442 16.736 0 0 .95 5.777.523 10.128-.371 3.759 2.151 13.183 2.707 14.432.719 1.621-10.207 8.473-24.539 5.806-11.289-2.101-9.676-6.724-9.005-12.944.419-3.912 1.365-16.425 1.522-19.535.156-3.11-1.391-6.707.604-11.583 1.066-2.609 3.238-1.352 3.637-2.709a3.406 3.406 0 0 1 2.386-2.332l1.325-.356-.004-.004Z" fill="#C5CBF2"/>
        <path d="M301.923 219.028c1.16-.008 2.106-.802 2.098-1.762l-.889-3.56c-.008-.964 0-1.667-1.16-1.654-1.16.008-1.818.574-1.785 2.311l.082 2.713c.013.352.066.707.189 1.038.227.616.552.918 1.465.914Z" fill="#874B2B"/>
        <path d="M304.745 173.159s13.761 11.686 17.031 22.442c3.271 10.756-18.249 19.498-18.249 19.498l-3.163-2.415c-.473-.364-.469-1.104.012-1.493 2.995-2.419 11.881-9.825 10.721-11.703-1.93-3.126-15.147-16.851-15.147-16.851l8.795-9.478Z" fill="#C5CBF2"/>
        <path d="m305.909 192.401-6.076-10.388" stroke="#4355C2" stroke-width="1.23" stroke-linecap="round" stroke-linejoin="round"/>
        <path d="M245.523 144.249c-1.078.699-1.481 1.964-.897 2.812l2.97 2.63c.584.848 3.106-.48 2.353-2.337l-1.711-2.361a3.43 3.43 0 0 0-.798-.806c-.584-.41-1.07-.488-1.917.062Z" fill="#874B2B"/>
        <path d="m284.172 167.737-20.092-5.181-13.937-14.859-2.711 2.92c-.671.939 6.586 16.086 9.058 20.077a5.641 5.641 0 0 0 2.378 2.125c6.208 2.961 24.749 7.324 24.749 7.324l.551-12.41.004.004Z" fill="#C5CBF2"/>
        <path d="m275.768 178.27.892-1.849" stroke="#4355C2" stroke-width="1.23" stroke-linecap="round" stroke-linejoin="round"/>
        <path d="M285.377 167.613s-1.46 5.798 1.819 6.22c3.377.434 8.91-5.48 8.91-5.48l-3.357-1.902-4.155.496-3.213.67-.004-.004Z" fill="#874B2B"/>
        <path d="m291.17 170.057-.346-.364c-.909.219-1.711.091-1.876-.815l-.099-.537-.835-4.557c-.164-.902.44-1.824 1.35-2.043l.267-.066c.909-.219 2.324.012 2.489.914l1.218 5.376c.164.901-1.263 1.865-2.168 2.084v.008Z" fill="#874B2B"/>
        <path d="M288.38 165.769s2.325.364 3.711-1.877c0 0-1.37 3.308-3.373 3.754l-.338-1.877Z" fill="#6B3D26"/>
        <path d="M293.189 156.481c-.662-1.34-1.789-1.671-2.9-1.038-1.008-.542-2.312-.008-3.353 1.563-1.452 2.188-2.052 5.818-1.086 7.77.42.852 1.173 1.1 1.889 1.183a5.28 5.28 0 0 0 2.028-.182c2.386-.666 2.402-.318 3.369-1.778 1.452-2.188 1.016-5.566.053-7.518Z" fill="#874B2B"/>
        <path d="M287.13 164.363c-.514-.182-.642-.972-.646-1.791l1.863.662c-.444 1.385-1.217 1.129-1.217 1.129Z" fill="#fff"/>
        <path fill-rule="evenodd" clip-rule="evenodd" d="M285.595 159.111c.626-.376 2.362-.19 2.765-2.005.399-1.816.387.872 1.97 1.182 1.588.31.564.74 1.017 1.63.452.889 1.131 2.381 2.525 2.175 1.399-.207 1.827-4.136 1.695-4.28-.131-.145-3.171-4.251-3.171-4.251l-4.772.223-1.811 3.072-.218 2.254Z" fill="#4D2C1C"/>
        <path d="M296.6 159.917s-.206.923-1.23 1.113M285.85 159s-1.411.715-2.324.202" stroke="#26160E" stroke-width=".46" stroke-linecap="round" stroke-linejoin="round"/>
        <path d="M294.551 162.821c-.432.756-1.304 1.071-1.95.698-.642-.372-.81-1.286-.378-2.047.432-.761 1.304-1.071 1.95-.698.641.372.81 1.286.378 2.047Z" fill="#874B2B"/>
        <path d="m292.745 155.666-1.592 2.452" stroke="#26160E" stroke-width=".46" stroke-linecap="round" stroke-linejoin="round"/>
    </g>
    <defs>
        <clipPath id="a">
            <path fill="#fff" d="M.633.5h367v308h-367z"/>
        </clipPath>
    </defs>
</svg>
